{
  "asset": {
    "version": "2.0",
    "generator": "arrow-generator"
  },
  "buffers": [
    {
      "uri": "data:application/octet-stream;base64,",
      "byteLength": 108
    }
  ],
  "bufferViews": [
    {
      "buffer": 0,
      "byteOffset": 0,
      "byteLength": 72,
      "target": 34962
    },
    {
      "buffer": 0,
      "byteOffset": 72,
      "byteLength": 36,
      "target": 34963
    }
  ],
  "accessors": [
    {
      "bufferView": 0,
      "byteOffset": 0,
      "componentType": 5126,
      "count": 6,
      "type": "VEC3",
      "min": [
        -0.25,
        -0.5,
        -0.05
      ],
      "max": [
        0.25,
        0.5,
        0.05
      ]
    },
    {
      "bufferView": 1,
      "byteOffset": 0,
      "componentType": 5123,
      "count": 18,
      "type": "SCALAR"
    }
  ],
  "materials": [
    {
      "pbrMetallicRoughness": {
        "baseColorFactor": [
          0.2,
          0.9,
          0.95,
          1.0
        ],
        "metallicFactor": 0.1,
        "roughnessFactor": 0.3
      },
      "name": "FuturisticMaterial"
    }
  ],
  "meshes": [
    {
      "primitives": [
        {
          "attributes": {
            "POSITION": 0
          },
          "indices": 1,
          "material": 0,
          "mode": 4
        }
      ],
      "name": "ArrowMesh"
    }
  ],
  "nodes": [
    {
      "mesh": 0,
      "name": "ArrowNode"
    }
  ],
  "scenes": [
    {
      "nodes": [
        0
      ]
    }
  ],
  "scene": 0
}